<?xml version="1.0" encoding="utf-8"?>
<!-- Generator: Adobe Illustrator 16.0.0, SVG Export Plug-In . SVG Version: 6.00 Build 0)  -->
<!DOCTYPE svg PUBLIC "-//W3C//DTD SVG 1.1//EN" "http://www.w3.org/Graphics/SVG/1.1/DTD/svg11.dtd">
<svg version="1.1" xmlns="http://www.w3.org/2000/svg" xmlns:xlink="http://www.w3.org/1999/xlink" x="0px" y="0px"
	 width="75.203px" height="75.203px" viewBox="0 0 75.203 75.203" enable-background="new 0 0 75.203 75.203" xml:space="preserve">
<symbol  id="arrow" viewBox="-34.419 -35 68.837 70">
	<path fill="#E71663" d="M-25.365-2.86c-1.262-6.29-7.932-23.396-8.864-25.821c-1.032-2.681,2.268-8.04,7.009-5.772
		c4.742,2.268,57.321,28.335,59.992,29.893c0.823,0.48,1.629,0.991,1.646,2.849L-25.365-2.86z"/>
	<path fill="#E71663" d="M-25.365,2.86c-1.262,6.29-7.932,23.396-8.864,25.821c-1.032,2.68,2.268,8.04,7.009,5.772
		c4.742-2.268,57.321-28.335,59.992-29.893C33.595,4.08,34.4,3.57,34.418,1.714L-25.365,2.86z"/>
</symbol>
<g id="Layer_1" display="none">
	<rect display="inline" fill="#48A364" width="75.203" height="75.203"/>
</g>
<g id="Layer_2">
	
		<use xlink:href="#arrow"  width="68.837" height="70" x="-34.419" y="-35" transform="matrix(1 0 0 -1 37.6016 37.6011)" overflow="visible"/>
</g>
</svg>
