<?xml version="1.0" encoding="utf-8"?>
<!-- Generator: Adobe Illustrator 16.0.0, SVG Export Plug-In . SVG Version: 6.00 Build 0)  -->
<!DOCTYPE svg PUBLIC "-//W3C//DTD SVG 1.1//EN" "http://www.w3.org/Graphics/SVG/1.1/DTD/svg11.dtd">
<svg version="1.1" id="Layer_1" xmlns="http://www.w3.org/2000/svg" xmlns:xlink="http://www.w3.org/1999/xlink" x="0px" y="0px"
	 width="75.203px" height="75.203px" viewBox="0 0 75.203 75.203" enable-background="new 0 0 75.203 75.203" xml:space="preserve">
<g id="Layer_1_1_" display="none">
	<rect display="inline" fill="#48A364" width="75.203" height="75.203"/>
</g>
<g>
	<path fill="#E71663" d="M44.68,28.025h17.995c1.87,0,3.64,0.396,4.919,1.771c2.264,2.164,1.869,6.098-0.785,7.869
		c-0.688,0.491-1.475,0.785-2.264,1.18c2.066,1.279,3.936,2.755,3.247,5.605c-0.394,1.771-1.378,2.559-4.326,3.248
		c1.671,1.276,2.948,2.851,2.359,5.017c-0.591,2.162-2.165,3.146-4.327,3.439c0.098,0.197,0.098,0.396,0.197,0.492
		c1.377,1.181,2.162,2.558,1.572,4.426c-0.688,2.066-1.966,3.443-4.031,3.836c-0.787,0.199-1.672,0.199-2.459,0.199
		c-8.557,0-17.016,0.193-25.571-0.1c-2.754-0.099-5.508-1.083-8.262-1.671c-0.984-0.198-1.279-0.887-1.279-1.968
		c0-8.655,0-17.41,0.099-26.065c0-0.689,0.491-1.574,1.082-1.966c3.737-2.656,6.786-5.901,9.54-9.639
		c2.556-3.443,3.443-7.475,3.934-11.605c0.296-2.263,1.18-3.442,3.148-3.836c1.771-0.395,3.54,0.393,4.327,2.458
		c0.786,2.065,1.279,4.229,1.378,6.393C45.168,20.649,44.773,24.189,44.68,28.025L44.68,28.025z M19.598,47.795v15.441
		c0,2.162-0.589,2.852-2.853,2.852H7.401c-2.164,0-2.853-0.688-2.853-2.852V32.353c0-2.164,0.687-2.853,2.853-2.853h9.541
		c1.966,0,2.656,0.688,2.656,2.655V47.795z M8.68,59.204c0,1.866,1.574,3.442,3.441,3.344c1.771-0.099,3.246-1.575,3.246-3.44
		c0-1.868-1.575-3.346-3.442-3.346C10.057,55.762,8.68,57.335,8.68,59.204z"/>
</g>
</svg>
