<?xml version="1.0" encoding="utf-8"?>
<!-- Generator: Adobe Illustrator 16.0.0, SVG Export Plug-In . SVG Version: 6.00 Build 0)  -->
<!DOCTYPE svg PUBLIC "-//W3C//DTD SVG 1.1//EN" "http://www.w3.org/Graphics/SVG/1.1/DTD/svg11.dtd">
<svg version="1.1" id="Layer_1" xmlns="http://www.w3.org/2000/svg" xmlns:xlink="http://www.w3.org/1999/xlink" x="0px" y="0px"
	 width="75.202px" height="75.202px" viewBox="0 0 75.202 75.202" enable-background="new 0 0 75.202 75.202" xml:space="preserve">
<g>
	<path fill="#CF2F79" d="M24.533,2.93c-3.563,0-6.462,2.647-6.621,5.967h-0.068v57.407h0.068c0.158,3.319,3.058,5.968,6.621,5.968
		s6.461-2.648,6.62-5.968h0.069V8.897h-0.069C30.994,5.578,28.096,2.93,24.533,2.93z"/>
	<path fill="#CF2F79" d="M60.277,8.897H60.21c-0.159-3.319-3.058-5.967-6.621-5.967c-3.562,0-6.461,2.647-6.62,5.967H46.9v57.407
		h0.068c0.158,3.319,3.058,5.968,6.62,5.968c3.563,0,6.463-2.648,6.621-5.968h0.067V8.897z"/>
</g>
</svg>
