<?xml version="1.0" encoding="utf-8"?>
<!-- Generator: Adobe Illustrator 16.0.0, SVG Export Plug-In . SVG Version: 6.00 Build 0)  -->
<!DOCTYPE svg PUBLIC "-//W3C//DTD SVG 1.1//EN" "http://www.w3.org/Graphics/SVG/1.1/DTD/svg11.dtd">
<svg version="1.1" id="Layer_1" xmlns="http://www.w3.org/2000/svg" xmlns:xlink="http://www.w3.org/1999/xlink" x="0px" y="0px"
	 width="75.203px" height="75.203px" viewBox="0 0 75.203 75.203" enable-background="new 0 0 75.203 75.203" xml:space="preserve">
<g id="Layer_1_1_" display="none">
	<rect display="inline" fill="#48A364" width="75.203" height="75.203"/>
</g>
<g id="Layer_2">
	<g>
		<path fill="#FFFFFF" d="M4.84,23.098v28.425h12.901l34.052,20.813V2.865l-34.81,20.233H4.84z M12.72,30.978h2.392v12.665H12.72
			V30.978z M43.912,58.285l-20.92-12.789V28.72l20.92-12.16V58.285z"/>
		<path fill="#FFFFFF" d="M62.159,20.168l-4.47,6.489c3.01,2.074,4.848,6.581,4.793,11.762c-0.055,5.06-1.953,9.687-4.727,11.513
			l4.335,6.579c5.021-3.305,8.188-10.206,8.271-18.01C70.443,30.617,67.377,23.763,62.159,20.168z"/>
	</g>
</g>
</svg>
