<?xml version="1.0" encoding="utf-8"?>
<!-- Generator: Adobe Illustrator 16.0.0, SVG Export Plug-In . SVG Version: 6.00 Build 0)  -->
<!DOCTYPE svg PUBLIC "-//W3C//DTD SVG 1.1//EN" "http://www.w3.org/Graphics/SVG/1.1/DTD/svg11.dtd">
<svg version="1.1" id="Layer_1" xmlns="http://www.w3.org/2000/svg" xmlns:xlink="http://www.w3.org/1999/xlink" x="0px" y="0px"
	 width="75.203px" height="75.203px" viewBox="0 0 75.203 75.203" enable-background="new 0 0 75.203 75.203" xml:space="preserve">
<g id="Layer_1_1_" display="none">
	<rect display="inline" fill="#48A364" width="75.203" height="75.203"/>
</g>
<g>
	<path fill="#E71663" d="M44.902,47.479c0.1,3.945,0.505,7.586,0.505,11.229c-0.101,2.226-0.605,4.451-1.416,6.574
		c-0.81,2.125-2.63,2.935-4.45,2.528c-2.024-0.405-2.934-1.619-3.238-3.945c-0.505-4.248-1.417-8.395-4.046-11.938
		c-2.832-3.844-5.968-7.18-9.812-9.912c-0.606-0.406-1.112-1.314-1.112-2.024c-0.103-8.898-0.103-17.903-0.103-26.804
		c0-1.114,0.303-1.819,1.313-2.024c2.834-0.605,5.665-1.617,8.499-1.719c8.8-0.303,17.501-0.1,26.302-0.1
		c0.807,0,1.719,0,2.527,0.203c2.124,0.404,3.438,1.821,4.146,3.946c0.604,1.921-0.201,3.337-1.619,4.551
		c-0.101,0.1-0.101,0.303-0.203,0.507c2.228,0.302,3.846,1.312,4.451,3.539c0.606,2.224-0.709,3.844-2.428,5.159
		c3.034,0.708,4.047,1.516,4.451,3.339c0.708,2.933-1.214,4.448-3.339,5.765c0.81,0.405,1.618,0.71,2.326,1.214
		c2.731,1.82,3.138,5.869,0.809,8.092c-1.313,1.418-3.135,1.821-5.058,1.821H44.902V47.479z M19.108,43.23
		c0,2.023-0.71,2.732-2.732,2.732H6.564c-2.226,0-2.934-0.709-2.934-2.936V11.266c0-2.224,0.707-2.932,2.934-2.932h9.61
		c2.329,0,2.934,0.708,2.934,2.932v15.882V43.23z M11.216,18.956c1.921,0,3.541-1.519,3.541-3.44c0-1.922-1.517-3.438-3.339-3.54
		c-1.921-0.102-3.54,1.519-3.54,3.439C7.879,17.336,9.296,18.956,11.216,18.956z"/>
</g>
</svg>
