<?xml version="1.0" encoding="utf-8"?>
<!-- Generator: Adobe Illustrator 16.0.0, SVG Export Plug-In . SVG Version: 6.00 Build 0)  -->
<!DOCTYPE svg PUBLIC "-//W3C//DTD SVG 1.1//EN" "http://www.w3.org/Graphics/SVG/1.1/DTD/svg11.dtd">
<svg version="1.1" id="Layer_1" xmlns="http://www.w3.org/2000/svg" xmlns:xlink="http://www.w3.org/1999/xlink" x="0px" y="0px"
	 width="75.203px" height="75.203px" viewBox="0 0 75.203 75.203" enable-background="new 0 0 75.203 75.203" xml:space="preserve">
<path fill="#CF2F79" d="M41.708,14.088C41.51,7.478,40.886,1.82,39.879,1.82c-2.421,0-16.377,12.245-16.371,16.371
	c0.007,4.126,13.731,16.371,16.371,16.371c1.088,0,1.689-5.567,1.853-12.108c9.908,1.934,17.412,10.672,17.412,21.137
	c0,11.879-9.664,21.543-21.543,21.543c-11.878,0-21.542-9.664-21.542-21.543h-0.09c-0.246-1.968-1.948-3.496-4.035-3.496
	c-2.088,0-3.79,1.528-4.036,3.496H7.809c0,16.428,13.365,29.792,29.792,29.792c16.428,0,29.793-13.364,29.793-29.792
	C67.394,28.557,56.199,16.096,41.708,14.088z"/>
</svg>
