<?xml version="1.0" encoding="utf-8"?>
<!-- Generator: Adobe Illustrator 16.0.0, SVG Export Plug-In . SVG Version: 6.00 Build 0)  -->
<!DOCTYPE svg PUBLIC "-//W3C//DTD SVG 1.1//EN" "http://www.w3.org/Graphics/SVG/1.1/DTD/svg11.dtd">
<svg version="1.1" xmlns="http://www.w3.org/2000/svg" xmlns:xlink="http://www.w3.org/1999/xlink" x="0px" y="0px"
	 width="75.203px" height="75.203px" viewBox="0 0 75.203 75.203" enable-background="new 0 0 75.203 75.203" xml:space="preserve">
<g id="Layer_1" display="none">
	<rect display="inline" fill="#48A364" width="75.203" height="75.203"/>
</g>
<g id="Layer_2">
	<g>
		<path fill="#E61F68" d="M65.738,21.42c-6.537-6.615-16.669-6.614-27.444-6.61H37.6c-2.933,0-5.723,0.088-8.422,0.172
			c-0.793,0.025-1.567,0.048-2.33,0.069V6.779L7.658,18.812l19.189,12.686v-8.25c0.847-0.023,1.706-0.049,2.587-0.076
			c2.635-0.082,5.36-0.168,8.165-0.168h0.697c9.378,0.005,17.482-0.005,21.612,4.176c2.69,2.723,3.958,7.429,3.873,14.387
			c-0.227,18.672-8.69,18.66-25.483,18.665L37.6,60.23c-17.507,0-25.942-0.792-26.182-18.613c0.046-3.418,0.427-6.349,1.132-8.714
			l-7.852-2.341c-0.938,3.147-1.421,6.747-1.474,11.004l0,0.051l0,0.051C3.561,68.423,21.645,68.423,37.6,68.423h0.696
			c0.213,0,0.426,0,0.639,0c16.196,0,32.72-0.338,33.04-26.757C72.087,32.405,70.046,25.782,65.738,21.42z"/>
		<polygon fill="#E61F68" points="35.852,29.032 35.852,46.15 36.129,46.15 47.843,50.646 49.521,46.275 40.535,42.826 
			40.535,29.032 		"/>
	</g>
</g>
</svg>
