<?xml version="1.0" encoding="utf-8"?>
<!-- Generator: Adobe Illustrator 16.0.0, SVG Export Plug-In . SVG Version: 6.00 Build 0)  -->
<!DOCTYPE svg PUBLIC "-//W3C//DTD SVG 1.1//EN" "http://www.w3.org/Graphics/SVG/1.1/DTD/svg11.dtd">
<svg version="1.1" id="Layer_1" xmlns="http://www.w3.org/2000/svg" xmlns:xlink="http://www.w3.org/1999/xlink" x="0px" y="0px"
	 width="75.202px" height="75.202px" viewBox="0 0 75.202 75.202" enable-background="new 0 0 75.202 75.202" xml:space="preserve">
<path fill="#CF2F79" d="M75.202,37.66c0-2.979-2.306-5.413-5.229-5.629V31.99H42.705V5.079h-0.041C42.442,2.238,40.01,0,37.036,0
	c-2.974,0-5.406,2.238-5.628,5.079h-0.042V31.99H5.08v0.041C2.24,32.253,0,34.686,0,37.66s2.24,5.407,5.08,5.629v0.041h26.287
	v26.643h0.041c0.216,2.923,2.65,5.229,5.629,5.229s5.413-2.307,5.629-5.229h0.04V43.33h27.268v-0.041
	C72.896,43.073,75.202,40.639,75.202,37.66z"/>
</svg>
