<?xml version="1.0" encoding="utf-8"?>
<!-- Generator: Adobe Illustrator 16.0.0, SVG Export Plug-In . SVG Version: 6.00 Build 0)  -->
<!DOCTYPE svg PUBLIC "-//W3C//DTD SVG 1.1//EN" "http://www.w3.org/Graphics/SVG/1.1/DTD/svg11.dtd">
<svg version="1.1" id="Laag_1" xmlns="http://www.w3.org/2000/svg" xmlns:xlink="http://www.w3.org/1999/xlink" x="0px" y="0px"
	 width="424.183px" height="90.183px" viewBox="0 0 424.183 90.183" enable-background="new 0 0 424.183 90.183"
	 xml:space="preserve">
<g>
	<path d="M5.147,14.938v2.771c1.296-2.16,2.808-3.24,5.543-3.24c2.556,0,4.247,1.044,5.183,3.312
		c1.332-2.339,3.312-3.312,5.939-3.312c2.987,0,5.939,1.764,5.939,6.767v12.851h-5.291V21.921c0-1.764-0.792-3.06-2.808-3.06
		c-1.512,0-3.132,0.648-3.132,3.815v11.411h-5.219V22.75c0-2.556-0.756-3.816-2.808-3.816c-1.98,0-3.132,0.9-3.132,3.6v11.555H0.108
		V14.938H5.147z"/>
	<path d="M37.223,14.902v11.482c0,2.772,0.828,3.852,3.024,3.852c2.52,0,3.852-1.332,3.852-5.003V14.902h5.327v19.186h-5.111
		l0.036-2.7c-1.26,1.8-2.88,3.132-5.868,3.132c-4.427,0-6.587-2.484-6.587-7.307V14.902H37.223z"/>
	<path d="M61.667,14.362c5.219,0,8.099,1.98,8.531,6.407h-5.219c-0.18-1.872-1.368-2.484-3.24-2.484
		c-2.412,0-2.952,0.936-2.952,1.62c0,0.9,0.576,1.296,2.771,1.8l3.276,0.792c3.383,0.828,5.867,2.447,5.867,5.759
		c0,3.743-2.736,6.479-8.747,6.479c-5.075,0-8.855-1.908-8.927-6.803h5.292c0.216,1.764,0.936,2.844,4.031,2.844
		c1.908,0,3.096-0.612,3.096-1.656s-0.468-1.332-2.592-1.908l-3.275-0.828c-4.14-1.044-5.976-2.231-5.976-5.543
		C53.604,17.818,56.051,14.362,61.667,14.362z"/>
	<path d="M81.971,14.398c5.795,0,9.359,3.492,9.143,11.519h-13.03c0.036,2.664,1.44,4.607,4.248,4.607
		c1.332,0,2.771-0.468,3.384-1.98h5.363c-0.324,3.348-3.419,6.191-8.783,6.191c-4.463,0-9.395-2.628-9.395-10.079
		C72.9,18.214,76.715,14.398,81.971,14.398z M85.75,22.533c-0.108-2.375-1.404-3.887-3.743-3.887c-2.196,0-3.456,1.476-3.78,3.887
		H85.75z"/>
	<path d="M99.647,14.902v11.482c0,2.772,0.828,3.852,3.024,3.852c2.52,0,3.852-1.332,3.852-5.003V14.902h5.327v19.186h-5.111
		l0.036-2.7c-1.26,1.8-2.88,3.132-5.868,3.132c-4.427,0-6.587-2.484-6.587-7.307V14.902H99.647z"/>
	<path d="M121.607,14.938v2.771c1.296-2.16,2.808-3.24,5.543-3.24c2.556,0,4.247,1.044,5.183,3.312
		c1.332-2.339,3.312-3.312,5.939-3.312c2.987,0,5.939,1.764,5.939,6.767v12.851h-5.291V21.921c0-1.764-0.792-3.06-2.808-3.06
		c-1.512,0-3.132,0.648-3.132,3.815v11.411h-5.219V22.75c0-2.556-0.756-3.816-2.808-3.816c-1.98,0-3.132,0.9-3.132,3.6v11.555
		h-5.255V14.938H121.607z"/>
	<path d="M250.163,14.902l3.889,14.002l3.959-14.002h5.543l-6.838,19.186h-5.473l-6.875-19.186H250.163z"/>
	<path d="M273.526,14.435c2.412,0,4.393,1.224,5.436,3.347v-2.843h5.111v19.149h-5.074v-2.664c-1.152,1.908-2.809,3.275-5.832,3.275
		c-4.139,0-7.955-3.6-7.955-9.683C265.212,18.214,268.595,14.435,273.526,14.435z M274.679,30.309c2.305,0,4.248-1.584,4.248-5.507
		c0-3.708-1.584-5.832-4.248-5.832c-2.484,0-4.139,1.872-4.139,5.615C270.54,28.725,272.339,30.309,274.679,30.309z"/>
	<path d="M293.651,14.938v2.771c1.475-2.232,3.311-3.275,5.723-3.275c4.176,0,6.803,2.052,6.803,6.695v12.958h-5.326V22.461
		c0-2.664-1.08-3.708-3.203-3.708c-1.873,0-3.816,0.828-3.816,5.039v10.295h-5.184V14.938H293.651z"/>
	<path d="M5.219,46.207v9.215c1.26-1.872,2.952-2.951,5.507-2.951c4.68,0,8.063,3.636,8.063,9.79c0,6.947-3.563,10.331-7.991,10.331
		c-2.628,0-4.104-0.756-5.688-2.915v2.411H0V46.207H5.219z M9.359,68.309c2.196,0,3.959-1.728,3.959-5.472
		c0-4.067-1.44-5.795-4.14-5.795c-2.771,0-4.139,2.123-4.139,5.76C5.04,66.185,6.659,68.309,9.359,68.309z"/>
	<path d="M31.067,52.291c6.335,0,9.898,3.959,9.898,10.294c0,5.867-3.348,10.188-9.863,10.188c-6.227,0-9.935-4.176-9.935-10.26
		C21.168,56.61,24.66,52.291,31.067,52.291z M31.067,68.417c2.735,0,4.463-2.125,4.463-5.832c0-3.996-1.8-5.939-4.463-5.939
		c-2.088,0-4.463,1.044-4.463,5.867C26.604,66.437,28.259,68.417,31.067,68.417z"/>
	<path d="M49.319,45.991v4.716h-5.255v-4.716H49.319z M49.319,52.902v19.186h-5.255V52.902H49.319z"/>
	<path d="M59.651,52.975v21.093c0,2.52-0.036,5.76-5.687,5.76c-0.612,0-1.296-0.036-1.872-0.036v-4.14
		c0.324,0.036,0.72,0.072,0.972,0.072c0.828,0,1.404-0.324,1.404-1.691V52.975H59.651z M59.651,45.991v4.716h-5.183v-4.716H59.651z"
		/>
	<path d="M69.407,52.938v2.771c1.296-2.16,2.808-3.239,5.543-3.239c2.556,0,4.247,1.044,5.183,3.312
		c1.332-2.34,3.312-3.312,5.939-3.312c2.987,0,5.939,1.764,5.939,6.767v12.851h-5.291V59.921c0-1.764-0.792-3.059-2.808-3.059
		c-1.512,0-3.132,0.647-3.132,3.814v11.411h-5.219V60.749c0-2.555-0.756-3.815-2.808-3.815c-1.98,0-3.132,0.899-3.132,3.6v11.555
		h-5.255V52.938H69.407z"/>
	<path d="M103.39,52.435c2.412,0,4.392,1.224,5.436,3.348v-2.844h5.111v19.149h-5.075v-2.663c-1.152,1.907-2.808,3.275-5.832,3.275
		c-4.14,0-7.955-3.6-7.955-9.684C95.075,56.214,98.459,52.435,103.39,52.435z M104.542,68.309c2.304,0,4.248-1.584,4.248-5.507
		c0-3.708-1.583-5.832-4.248-5.832c-2.483,0-4.139,1.872-4.139,5.615C100.403,66.725,102.203,68.309,104.542,68.309z"/>
	<path d="M123.334,52.938v2.771c1.476-2.232,3.312-3.275,5.724-3.275c4.175,0,6.803,2.052,6.803,6.695v12.958h-5.327V60.462
		c0-2.664-1.08-3.708-3.204-3.708c-1.872,0-3.815,0.827-3.815,5.039v10.295h-5.184V52.938H123.334z"/>
	<path d="M147.742,52.362c5.219,0,8.099,1.98,8.531,6.407h-5.219c-0.18-1.872-1.368-2.483-3.24-2.483
		c-2.412,0-2.952,0.936-2.952,1.619c0,0.9,0.576,1.297,2.771,1.801l3.276,0.791c3.383,0.828,5.867,2.447,5.867,5.76
		c0,3.743-2.736,6.479-8.747,6.479c-5.075,0-8.855-1.907-8.927-6.803h5.292c0.216,1.764,0.936,2.844,4.031,2.844
		c1.908,0,3.096-0.611,3.096-1.656c0-1.043-0.468-1.332-2.592-1.907l-3.275-0.828c-4.14-1.044-5.976-2.231-5.976-5.543
		C139.679,55.817,142.126,52.362,147.742,52.362z"/>
	<path d="M251.243,46.207v9.215c1.26-1.872,2.951-2.951,5.508-2.951c4.678,0,8.062,3.636,8.062,9.79
		c0,6.947-3.564,10.331-7.992,10.331c-2.627,0-4.104-0.756-5.686-2.915v2.411h-5.111V46.207H251.243z M255.382,68.309
		c2.195,0,3.961-1.728,3.961-5.472c0-4.067-1.441-5.795-4.141-5.795c-2.771,0-4.139,2.123-4.139,5.76
		C251.063,66.185,252.683,68.309,255.382,68.309z"/>
	<path d="M276.442,52.398c5.795,0,9.359,3.491,9.143,11.519h-13.029c0.035,2.664,1.439,4.607,4.246,4.607
		c1.332,0,2.771-0.468,3.385-1.98h5.363c-0.324,3.348-3.42,6.191-8.783,6.191c-4.463,0-9.395-2.627-9.395-10.078
		C267.372,56.214,271.187,52.398,276.442,52.398z M280.222,60.533c-0.107-2.376-1.404-3.888-3.744-3.888
		c-2.195,0-3.455,1.477-3.779,3.888H280.222z"/>
	<path d="M293.938,52.902v11.482c0,2.772,0.826,3.852,3.023,3.852c2.52,0,3.852-1.332,3.852-5.003V52.902h5.326v19.186h-5.111
		l0.037-2.7c-1.26,1.801-2.881,3.133-5.867,3.133c-4.428,0-6.588-2.484-6.588-7.308V52.902H293.938z"/>
	<path d="M315.61,52.938v2.771c1.475-2.232,3.311-3.275,5.723-3.275c4.176,0,6.803,2.052,6.803,6.695v12.958h-5.326V60.462
		c0-2.664-1.08-3.708-3.203-3.708c-1.873,0-3.816,0.827-3.816,5.039v10.295h-5.184V52.938H315.61z"/>
	<path d="M338.073,45.991v4.716h-5.254v-4.716H338.073z M338.073,52.902v19.186h-5.254V52.902H338.073z"/>
	<path d="M347.649,52.938v2.771c1.475-2.232,3.311-3.275,5.723-3.275c4.176,0,6.803,2.052,6.803,6.695v12.958h-5.326V60.462
		c0-2.664-1.08-3.708-3.203-3.708c-1.873,0-3.816,0.827-3.816,5.039v10.295h-5.184V52.938H347.649z"/>
	<path d="M371.444,52.435c2.16,0,4.141,0.791,5.436,3.239v-2.771h5.076v18.249c0,5.939-2.557,8.676-9.574,8.783
		c-4.141,0-8.279-1.367-8.676-5.795h5.652c0.287,1.08,0.898,1.836,3.348,1.836c2.914,0,4.066-1.296,4.066-5.508v-1.332
		c-0.791,1.404-1.871,3.023-5.398,3.023c-4.859,0-8.135-3.49-8.135-9.646C363.239,56.214,366.657,52.435,371.444,52.435z
		 M372.776,67.804c2.268,0,4.068-1.547,4.068-5.435c0-3.743-1.801-5.399-4.139-5.399c-2.557,0-4.068,1.836-4.068,5.543
		C368.638,65.501,369.97,67.804,372.776,67.804z"/>
	<path d="M394.124,52.398c5.797,0,9.359,3.491,9.145,11.519h-13.031c0.037,2.664,1.439,4.607,4.248,4.607
		c1.332,0,2.771-0.468,3.383-1.98h5.363c-0.324,3.348-3.42,6.191-8.783,6.191c-4.463,0-9.395-2.627-9.395-10.078
		C385.054,56.214,388.87,52.398,394.124,52.398z M397.905,60.533c-0.109-2.376-1.404-3.888-3.744-3.888
		c-2.195,0-3.455,1.477-3.779,3.888H397.905z"/>
	<path d="M411.657,52.938v2.771c1.475-2.232,3.311-3.275,5.723-3.275c4.176,0,6.803,2.052,6.803,6.695v12.958h-5.326V60.462
		c0-2.664-1.08-3.708-3.203-3.708c-1.873,0-3.816,0.827-3.816,5.039v10.295h-5.184V52.938H411.657z"/>
</g>
<path d="M220.017,45.092c5.168-4.743,8.414-11.561,8.414-19.131c0-14.338-11.62-25.958-25.96-25.96h-25.96v90.183l25.96-0.002
	c14.34-0.002,25.96-11.622,25.96-25.962C228.431,56.65,225.185,49.832,220.017,45.092z M202.471,87.446l-23.228,0.002V2.732h23.228
	c12.829,0.025,23.205,10.401,23.228,23.228c0,7.304-3.365,13.803-8.633,18.069l-1.312,1.062l1.312,1.062
	c5.268,4.262,8.633,10.764,8.633,18.065C225.676,77.048,215.3,87.424,202.471,87.446z M213.695,47.073L213.695,47.073
	c-1.205-0.788-2.499-1.455-3.863-1.981c1.364-0.526,2.658-1.194,3.862-1.983l-0.171-0.261l0.172,0.262v-0.002
	c5.581-3.656,9.271-9.974,9.271-17.146c0-11.321-9.175-20.494-20.496-20.496h-20.494v79.25h20.494
	c11.321-0.002,20.496-9.175,20.496-20.496C222.966,57.046,219.276,50.729,213.695,47.073z M202.47,81.98h-17.763V46.458h22.959
	l0.016-2.732h-22.975V8.198h17.763c9.812,0.019,17.745,7.954,17.764,17.763c0,6.221-3.192,11.682-8.036,14.861l0,0
	c-2.797,1.834-6.129,2.904-9.726,2.904v2.731c3.595,0.002,6.929,1.07,9.726,2.904l0.002,0.001c4.841,3.173,8.035,8.637,8.035,14.857
	C220.215,74.03,212.281,81.964,202.47,81.98z M202.472,49.188H187.44v30.062h15.031c8.302-0.002,15.028-6.729,15.031-15.031
	C217.5,55.918,210.773,49.191,202.472,49.188z M202.472,76.517h-12.298V51.922l12.298,0.002c6.791,0.011,12.285,5.505,12.296,12.296
	C214.757,71.011,209.263,76.506,202.472,76.517z M217.502,25.962c-0.002-8.302-6.73-15.03-15.032-15.03h-15.028v30.06h15.04
	C210.78,40.986,217.5,34.26,217.502,25.962z M190.174,38.258V13.664l12.296,0.002c6.792,0.01,12.286,5.504,12.298,12.296
	c0,6.788-5.5,12.294-12.288,12.296H190.174z"/>
</svg>
