<?xml version="1.0" encoding="utf-8"?>
<!-- Generator: Adobe Illustrator 16.0.0, SVG Export Plug-In . SVG Version: 6.00 Build 0)  -->
<!DOCTYPE svg PUBLIC "-//W3C//DTD SVG 1.1//EN" "http://www.w3.org/Graphics/SVG/1.1/DTD/svg11.dtd">
<svg version="1.1" id="Layer_1" xmlns="http://www.w3.org/2000/svg" xmlns:xlink="http://www.w3.org/1999/xlink" x="0px" y="0px"
	 width="51.92px" height="90.183px" viewBox="0 0 51.92 90.183" enable-background="new 0 0 51.92 90.183" xml:space="preserve">
<path d="M43.506,45.092c5.168-4.743,8.414-11.561,8.414-19.131C51.92,11.623,40.3,0.002,25.96,0H0v90.183l25.96-0.002
	c14.34-0.002,25.96-11.622,25.96-25.962C51.92,56.65,48.674,49.832,43.506,45.092z M25.96,87.446L2.732,87.448V2.732H25.96
	C38.789,2.757,49.165,13.133,49.188,25.96c0,7.304-3.365,13.803-8.633,18.069l-1.312,1.062l1.312,1.062
	c5.268,4.262,8.633,10.764,8.633,18.065C49.165,77.048,38.789,87.424,25.96,87.446z M37.185,47.073L37.185,47.073
	c-1.205-0.788-2.499-1.455-3.862-1.981c1.363-0.526,2.657-1.194,3.861-1.983l-0.171-0.261l0.172,0.262v-0.002
	c5.581-3.656,9.271-9.974,9.271-17.146c0-11.321-9.175-20.494-20.496-20.496H5.465v79.25h20.494
	c11.321-0.002,20.496-9.175,20.496-20.496C46.455,57.046,42.766,50.729,37.185,47.073z M25.959,81.98H8.196V46.458h22.958
	l0.016-2.732H8.196V8.198h17.763c9.812,0.019,17.745,7.954,17.764,17.763c0,6.221-3.192,11.682-8.036,14.861l-0.001,0
	c-2.797,1.834-6.129,2.904-9.725,2.904v2.731c3.594,0.002,6.928,1.07,9.725,2.904l0.002,0.001c4.842,3.173,8.035,8.637,8.035,14.857
	C43.704,74.03,35.771,81.964,25.959,81.98z M25.961,49.188H10.93v30.062h15.031c8.302-0.002,15.028-6.729,15.031-15.031
	C40.989,55.918,34.263,49.191,25.961,49.188z M25.961,76.517H13.663V51.922l12.298,0.002c6.791,0.011,12.285,5.505,12.296,12.296
	C38.246,71.011,32.752,76.506,25.961,76.517z M40.991,25.962c-0.002-8.302-6.729-15.03-15.032-15.03H10.932v30.06h15.04
	C34.27,40.986,40.989,34.26,40.991,25.962z M13.663,38.258V13.664l12.296,0.002c6.792,0.01,12.286,5.504,12.298,12.296
	c0,6.788-5.5,12.294-12.288,12.296H13.663z"/>
</svg>
